# xmcd
#
# Track frame offsets:
#	150
#	14776
#	34876
#	45544
#	70990
#	77023
#	88732
#	96432
#	127803
#	134874
#	153471
#	168160
#	183072
#	187708
#	214898
#	219413
#	238216
#	255550
#	271714
#	293150
#	305290
#	317059
#
# Disc length: 4437
#
# Revision: 1
# Processed by: cddbd v1.5.1PL0 Copyright (c) Steve Scherf et al.
# Submitted via: ExactAudioCopy v0.90b4
# Normalized: r0:DSETVAR1,TDELIM( - )
#
DISCID=38115316
DTITLE=Various Artist - Monkeymans Rock Compilation
DYEAR=2002
DGENRE=A Cappella
TTITLE0=Squirrel Nut Zippers - Hell
TTITLE1=Frank Zappa - Catholic Girls
TTITLE2=Dead Milkmen - Stuart
TTITLE3=Revolting Cocks - Da Ya Think Im Sexy
TTITLE4=Nancy Vandal - Cock Rocks not Dead
TTITLE5=Mr OysterHead - The Grand Pecking Order
TTITLE6=Ween - Waynes Pet Youngin
TTITLE7=Detroit Grand Pubahs - Dr BootyGrabber
TTITLE8=Ween - Old Queen Cole
TTITLE9=BloodHoundGang - Asleep At The Wheel
TTITLE10=Cake - Satan Is My Motor
TTITLE11=Frank Zappa - Jewish Princess
TTITLE12=Nancy Vandal - Egg Sandwich
TTITLE13=Funkadelic - Uncle Jam
TTITLE14=Kyuss - Lick My Doo
TTITLE15=Machine Gun Fellatio - Drugsex
TTITLE16=Parliment - Testify
TTITLE17=Ween - Piss up a Rope
TTITLE18=Pixies - Motorway to Roswell
TTITLE19=Regurgitator - I Like Repetitive Music
TTITLE20=Nancy Vandal - We Are Not Getting Any Nuder
TTITLE21=Soul Coughing - Super Bon Bon
EXTD=
EXTT0=
EXTT1=
EXTT2=
EXTT3=
EXTT4=
EXTT5=
EXTT6=
EXTT7=
EXTT8=
EXTT9=
EXTT10=
EXTT11=
EXTT12=
EXTT13=
EXTT14=
EXTT15=
EXTT16=
EXTT17=
EXTT18=
EXTT19=
EXTT20=
EXTT21=
PLAYORDER=
